<svg width="327" height="41" viewBox="0 0 327 41" fill="none" xmlns="http://www.w3.org/2000/svg">
<path d="M18.6055 26.0469H35.2569V37.8878H22.368L18.6055 40.5V37.8878V26.0469Z" fill="url(#paint0_linear_5674_13060)"/>
<path fill-rule="evenodd" clip-rule="evenodd" d="M17.6136 1.25488C16.0188 8.60446 13.2993 13.3097 10.4758 16.4653C7.28605 20.0304 3.59518 22.0325 0.104004 23.4771L4.90098 35.0698C9.31922 33.2415 14.9014 30.3344 19.8256 24.8309C22.5636 21.7709 24.9874 18.0331 26.9126 13.4506C28.8378 18.0331 31.2616 21.7709 33.9995 24.8309C38.9237 30.3344 44.5059 33.2415 48.9242 35.0698L53.7212 23.4771C50.23 22.0325 46.5391 20.0304 43.3493 16.4653C40.5259 13.3098 37.8064 8.60446 36.2116 1.25488H17.6136Z" fill="url(#paint1_radial_5674_13060)"/>
<path d="M303.131 3.36406C305.561 1.44182 308.785 0.5 312.763 0.5C316.816 0.5 320.032 1.53168 322.361 3.64195C324.694 5.71996 325.846 8.55925 325.846 12.113V12.4903H319.106V12.113C319.106 10.4705 318.506 9.2212 317.313 8.31866L317.309 8.3152L317.304 8.31162C316.126 7.36226 314.588 6.87252 312.658 6.87252C310.788 6.87252 309.254 7.28021 308.033 8.07182L308.031 8.07323C306.877 8.81038 306.315 9.82928 306.315 11.1679C306.315 11.7316 306.455 12.2417 306.734 12.7064C307.028 13.1962 307.366 13.5981 307.747 13.917C308.125 14.1988 308.714 14.4969 309.536 14.8048C310.366 15.1161 311.054 15.3571 311.603 15.529C312.2 15.6695 313.054 15.8788 314.166 16.1567C315.038 16.366 315.685 16.5234 316.107 16.6288C316.578 16.7378 317.235 16.9338 318.074 17.213C318.911 17.4574 319.573 17.6886 320.051 17.908C320.52 18.0891 321.105 18.3561 321.805 18.7058C322.522 19.0644 323.098 19.4324 323.518 19.8142C323.915 20.1758 324.344 20.6231 324.805 21.1536C325.319 21.7055 325.71 22.3004 325.974 22.9387C326.23 23.5244 326.446 24.2111 326.624 24.9954C326.806 25.7616 326.896 26.5782 326.896 27.4438C326.896 31.1148 325.594 34.0124 322.973 36.0876L322.97 36.0896C320.371 38.1112 317.1 39.1093 313.183 39.1093C310.373 39.1093 307.885 38.6112 305.726 37.6038L305.724 37.6028C303.598 36.5941 301.932 35.1477 300.736 33.2638L300.735 33.2611C299.538 31.3391 298.945 29.1156 298.945 26.6038V26.2264H305.79V26.6038C305.79 28.4562 306.461 29.9014 307.798 30.9794C309.189 32.0375 310.957 32.5793 313.131 32.5793C315.097 32.5793 316.732 32.1059 318.057 31.1793C319.366 30.2293 319.999 29.027 319.999 27.5488C319.999 26.9989 319.902 26.5078 319.714 26.0699L319.71 26.0591L319.706 26.0482C319.558 25.6333 319.29 25.2708 318.886 24.9603L318.88 24.9558L318.875 24.9511C318.469 24.6128 318.066 24.3278 317.666 24.0946L317.649 24.085L317.634 24.0738C317.3 23.8305 316.752 23.5827 315.961 23.3421L315.956 23.3407C315.192 23.0974 314.575 22.9264 314.102 22.825L314.089 22.8224L314.077 22.8189C313.594 22.6809 312.865 22.4899 311.888 22.2456C310.805 22.0009 309.98 21.808 309.416 21.6671L309.406 21.6644L309.395 21.6612C308.836 21.4863 308.049 21.2413 307.034 20.9263L307.026 20.924L307.018 20.9213C306.029 20.5679 305.237 20.2271 304.65 19.8973L304.641 19.8921C304.104 19.5701 303.466 19.1438 302.726 18.6154L302.721 18.612L302.716 18.6085C301.957 18.0296 301.363 17.4215 300.948 16.7807L300.941 16.7701L300.935 16.759C300.57 16.1023 300.246 15.3257 299.961 14.4331C299.667 13.5149 299.523 12.4952 299.523 11.3779C299.523 7.98773 300.719 5.30104 303.129 3.36578L303.131 3.36406Z" fill="#2E2E2E"/>
<path d="M266.896 1.02513H273.689V16.041H277.368L287.868 1.02513H296.197L283.383 19.1463L297.36 38.5319H288.921L277.422 22.4135H273.689V38.5319H266.896V1.02513Z" fill="#2E2E2E"/>
<path d="M115.827 1.2549L119.353 7.80484V8.03654H106.882C104.607 8.03654 102.763 9.88086 102.763 12.1559C102.763 14.431 104.607 16.2754 106.882 16.2754H111.777V16.3344C117.262 16.9046 121.538 21.5412 121.538 27.1765C121.538 33.197 116.657 38.0776 110.637 38.0776L101.686 38.0776L98.1604 31.5301V31.296L110.637 31.296C112.912 31.296 114.756 29.4516 114.756 27.1765C114.756 24.9015 112.912 23.0571 110.637 23.0571L106.882 23.057C100.862 23.057 95.981 18.1764 95.981 12.1559C95.981 6.13546 100.862 1.2549 106.882 1.2549H115.827Z" fill="#2E2E2E"/>
<path d="M200.126 1.2549V8.04734H192.018V37.6284H185.357V8.04734H176.73V1.2549H200.126Z" fill="#2E2E2E"/>
<path d="M129.161 1.2982H135.821V37.6284H129.161V1.2982Z" fill="#2E2E2E"/>
<path d="M248.296 1.2982H241.635V38.2359H261.258V31.4435H248.296V1.2982Z" fill="#2E2E2E"/>
<path fill-rule="evenodd" clip-rule="evenodd" d="M77.0638 1.55726H69.6768L72.4634 7.28953L57.4624 37.7752H64.8558L65.0853 37.3086C65.1213 37.283 65.1567 37.2554 65.1914 37.2257L67.1853 35.5166C69.7255 33.3393 72.9608 32.1425 76.3065 32.1425H84.5447L87.2829 37.7753H94.6698L77.0638 1.55726ZM81.5419 25.9654L76.1346 14.8418L70.2044 26.8999C72.1693 26.2836 74.2262 25.9654 76.3065 25.9654H81.5419Z" fill="#2E2E2E"/>
<path fill-rule="evenodd" clip-rule="evenodd" d="M160.083 1.55726H152.696L155.482 7.28953L140.481 37.7752H147.875L148.104 37.3086C148.118 37.299 148.131 37.289 148.145 37.2788C148.167 37.2619 148.189 37.2442 148.21 37.2257L150.204 35.5166C152.744 33.3393 155.98 32.1425 159.325 32.1425H167.564L170.302 37.7753H177.689L160.083 1.55726ZM164.561 25.9654L159.153 14.8418L153.223 26.8999C155.188 26.2836 157.245 25.9654 159.325 25.9654H164.561Z" fill="#2E2E2E"/>
<path fill-rule="evenodd" clip-rule="evenodd" d="M218.951 1.55726H211.564L214.35 7.28953L199.349 37.7752H206.743L206.972 37.3086C207.008 37.283 207.044 37.2554 207.078 37.2257L209.072 35.5166C211.612 33.3393 214.848 32.1425 218.193 32.1425H226.431L229.17 37.7753H236.557L218.951 1.55726ZM223.429 25.9654L218.021 14.8418L212.091 26.8999C214.056 26.2836 216.113 25.9654 218.193 25.9654H223.429Z" fill="#2E2E2E"/>
<defs>
<linearGradient id="paint0_linear_5674_13060" x1="21.6133" y1="40.5" x2="34.4434" y2="26.1603" gradientUnits="userSpaceOnUse">
<stop stop-color="#810333"/>
<stop offset="1" stop-color="#EE2B74"/>
</linearGradient>
<radialGradient id="paint1_radial_5674_13060" cx="0" cy="0" r="1" gradientUnits="userSpaceOnUse" gradientTransform="translate(26.1417 1.25488) rotate(90) scale(24.9056 46.0975)">
<stop stop-color="#810333"/>
<stop offset="1" stop-color="#EE2B74"/>
</radialGradient>
</defs>
</svg>
